<svg aria-hidden="true" style="position: absolute; width: 0; height: 0; overflow: hidden;" version="1.1" xmlns="http://www.w3.org/2000/svg" xmlns:xlink="http://www.w3.org/1999/xlink">
<defs>
<symbol id="icon-cross" viewBox="0 0 20 20">
<path d="M14.348 14.849c-0.469 0.469-1.229 0.469-1.697 0l-2.651-3.030-2.651 3.029c-0.469 0.469-1.229 0.469-1.697 0-0.469-0.469-0.469-1.229 0-1.697l2.758-3.15-2.759-3.152c-0.469-0.469-0.469-1.228 0-1.697s1.228-0.469 1.697 0l2.652 3.031 2.651-3.031c0.469-0.469 1.228-0.469 1.697 0s0.469 1.229 0 1.697l-2.758 3.152 2.758 3.15c0.469 0.469 0.469 1.229 0 1.698z"></path>
</symbol>
<symbol id="icon-star" viewBox="0 0 20 20">
<path d="M10 1.3l2.388 6.722h6.412l-5.232 3.948 1.871 6.928-5.439-4.154-5.438 4.154 1.87-6.928-5.233-3.948h6.412l2.389-6.722z"></path>
</symbol>
<symbol id="icon-motorcycle" viewBox="0 0 36 28">
<path d="M35.953 16.188c0.5 4.391-3.078 8.078-7.438 7.797-3.344-0.219-6.125-2.891-6.469-6.234-0.25-2.375 0.688-4.516 2.281-5.953l-1.109-1.672c-1.969 1.641-3.219 4.094-3.219 6.844 0 0.562-0.438 1.031-1 1.031h-5.078c-0.484 3.391-3.391 6-6.922 6-3.859 0-7-3.141-7-7s3.141-7 7-7c0.828 0 1.625 0.156 2.375 0.422l0.375-0.703c-1.203-1.078-2.781-1.719-4.75-1.719h-1c-0.547 0-1-0.453-1-1s0.453-1 1-1h2c3.5 0 5.281 1.437 6 2h9.797l-1.328-2h-3.469c-0.609 0-1.094-0.547-0.984-1.172 0.078-0.484 0.547-0.828 1.031-0.828h3.953c0.328 0 0.641 0.172 0.828 0.438l1.094 1.641 1.781-1.781c0.187-0.187 0.453-0.297 0.719-0.297h1.578c0.547 0 1 0.453 1 1v2c0 0.547-0.453 1-1 1h-2.797l1.797 2.688c1.266-0.609 2.734-0.859 4.297-0.562 2.984 0.547 5.313 3.047 5.656 6.062zM7 22c2.422 0 4.438-1.719 4.906-4h-4.906c-0.344 0-0.672-0.187-0.859-0.484-0.172-0.297-0.187-0.672-0.016-0.984l2.297-4.328c-0.453-0.125-0.922-0.203-1.422-0.203-2.75 0-5 2.25-5 5s2.25 5 5 5zM29 22c2.75 0 5-2.25 5-5s-2.25-5-5-5c-0.672 0-1.297 0.141-1.891 0.375l2.719 4.062c0.313 0.469 0.187 1.094-0.266 1.391-0.172 0.125-0.375 0.172-0.562 0.172-0.328 0-0.641-0.156-0.828-0.453l-2.719-4.062c-0.891 0.906-1.453 2.141-1.453 3.516 0 2.75 2.25 5 5 5z"></path>
</symbol>
<symbol id="icon-clipboard-edit" viewBox="0 0 32 32">
<path d="M26.443 13.15l-2.6-2.6-11.292 11.294 2.606 2.606 11.286-11.3zM27.15 12.443l1.729-1.731c0.39-0.39 0.387-1.025-0.005-1.416l-1.18-1.177c-0.393-0.392-1.025-0.395-1.417-0.003l-1.727 1.728 2.599 2.599zM11.904 22.611l-0.64 3.113 3.135-0.617-2.495-2.495zM22 19v9.996c0 1.114-0.894 2.004-1.997 2.004h-15.005c-1.107 0-1.997-0.897-1.997-2.004v-20.993c0-1.114 0.894-2.004 1.997-2.004h1.003c0.003-1.109 0.898-2 2.003-2h0.997c0.001-1.662 1.348-3 3.009-3h0.982c1.659 0 3.008 1.343 3.009 3h0.997c1.108 0 2 0.895 2.003 2v0h1.003c1.107 0 1.997 0.897 1.997 2.004v2.996l3.58-3.58c0.793-0.793 2.051-0.788 2.83-0.010l1.18 1.179c0.776 0.776 0.775 2.046-0.010 2.83l-7.58 7.58zM21 12v-3.997c0-0.554-0.455-1.003-1-1.003h-1c-0.003 1.109-0.898 2-2.003 2h-8.994c-1.108 0-2-0.895-2.003-2h-1c-0.552 0-1 0.439-1 1.003v20.994c0 0.554 0.455 1.003 1 1.003h15c0.552 0 1-0.439 1-1.003v-8.997l-6 6-5 1 1-5 10-10zM10 5h-2.004c-0.55 0-0.996 0.443-0.996 0.999v1.002c0 0.552 0.445 0.999 0.996 0.999h9.009c0.55 0 0.996-0.443 0.996-0.999v-1.002c0-0.552-0.445-0.999-0.996-0.999h-2.004v-1.002c0-1.103-0.894-1.998-2.005-1.998h-0.99c-1.107 0-2.005 0.898-2.005 1.998v1.002zM12.5 5c0.276 0 0.5-0.224 0.5-0.5s-0.224-0.5-0.5-0.5c-0.276 0-0.5 0.224-0.5 0.5s0.224 0.5 0.5 0.5v0 0z"></path>
</symbol>
</defs>
</svg>
